<mxfile host="app.diagrams.net" modified="2022-05-02T13:24:54.937Z" agent="5.0 (Macintosh; Intel Mac OS X 10_15_7) AppleWebKit/537.36 (KHTML, like Gecko) Chrome/100.0.4896.127 Safari/537.36" etag="aqHox5puRsQMKLbZ6cVx" version="17.5.0" type="github">
  <diagram id="UsCKMXVSTxp-egwy1biC" name="Page-1">
    <mxGraphModel dx="1031" dy="699" grid="1" gridSize="10" guides="1" tooltips="1" connect="1" arrows="1" fold="1" page="1" pageScale="1" pageWidth="850" pageHeight="1100" math="0" shadow="0">
      <root>
        <mxCell id="0" />
        <mxCell id="1" parent="0" />
        <mxCell id="emyvE3eDgOfMS4Qi2Yjl-1" value="Status Matters" style="rounded=1;whiteSpace=wrap;html=1;" vertex="1" parent="1">
          <mxGeometry x="550" y="220" width="120" height="60" as="geometry" />
        </mxCell>
        <mxCell id="emyvE3eDgOfMS4Qi2Yjl-2" value="Knowledge is sacred" style="rounded=1;whiteSpace=wrap;html=1;" vertex="1" parent="1">
          <mxGeometry x="550" y="100" width="120" height="60" as="geometry" />
        </mxCell>
        <mxCell id="emyvE3eDgOfMS4Qi2Yjl-3" value="Sacred" style="rounded=1;whiteSpace=wrap;html=1;" vertex="1" parent="1">
          <mxGeometry x="365" y="100" width="120" height="60" as="geometry" />
        </mxCell>
        <mxCell id="emyvE3eDgOfMS4Qi2Yjl-4" value="Authority" style="rounded=1;whiteSpace=wrap;html=1;" vertex="1" parent="1">
          <mxGeometry x="365" y="220" width="120" height="60" as="geometry" />
        </mxCell>
        <mxCell id="emyvE3eDgOfMS4Qi2Yjl-5" value="Care" style="rounded=1;whiteSpace=wrap;html=1;" vertex="1" parent="1">
          <mxGeometry x="365" y="350" width="120" height="60" as="geometry" />
        </mxCell>
        <mxCell id="emyvE3eDgOfMS4Qi2Yjl-6" value="Security" style="rounded=1;whiteSpace=wrap;html=1;" vertex="1" parent="1">
          <mxGeometry x="140" y="390" width="120" height="60" as="geometry" />
        </mxCell>
        <mxCell id="emyvE3eDgOfMS4Qi2Yjl-7" value="Loyalty" style="rounded=1;whiteSpace=wrap;html=1;" vertex="1" parent="1">
          <mxGeometry x="365" y="470" width="120" height="60" as="geometry" />
        </mxCell>
        <mxCell id="emyvE3eDgOfMS4Qi2Yjl-8" value="Fairness" style="rounded=1;whiteSpace=wrap;html=1;" vertex="1" parent="1">
          <mxGeometry x="50" y="490" width="120" height="60" as="geometry" />
        </mxCell>
        <mxCell id="emyvE3eDgOfMS4Qi2Yjl-9" value="Liberty" style="rounded=1;whiteSpace=wrap;html=1;" vertex="1" parent="1">
          <mxGeometry x="210" y="540" width="120" height="60" as="geometry" />
        </mxCell>
        <mxCell id="emyvE3eDgOfMS4Qi2Yjl-10" value="Might is Right" style="rounded=1;whiteSpace=wrap;html=1;" vertex="1" parent="1">
          <mxGeometry x="550" y="340" width="120" height="60" as="geometry" />
        </mxCell>
        <mxCell id="emyvE3eDgOfMS4Qi2Yjl-11" value="Classification is Absolute" style="rounded=1;whiteSpace=wrap;html=1;" vertex="1" parent="1">
          <mxGeometry x="550" y="450" width="120" height="60" as="geometry" />
        </mxCell>
        <mxCell id="emyvE3eDgOfMS4Qi2Yjl-12" value="Emotions are Unimportant" style="rounded=1;whiteSpace=wrap;html=1;" vertex="1" parent="1">
          <mxGeometry x="520" y="560" width="120" height="60" as="geometry" />
        </mxCell>
        <mxCell id="emyvE3eDgOfMS4Qi2Yjl-13" value="There is No Gray Area" style="rounded=1;whiteSpace=wrap;html=1;" vertex="1" parent="1">
          <mxGeometry x="710" y="450" width="120" height="60" as="geometry" />
        </mxCell>
        <mxCell id="emyvE3eDgOfMS4Qi2Yjl-14" value="Reasonable People think Me" style="rounded=1;whiteSpace=wrap;html=1;" vertex="1" parent="1">
          <mxGeometry x="100" y="200" width="120" height="60" as="geometry" />
        </mxCell>
        <mxCell id="emyvE3eDgOfMS4Qi2Yjl-15" value="The Boss is always Right" style="rounded=1;whiteSpace=wrap;html=1;" vertex="1" parent="1">
          <mxGeometry x="230" y="260" width="120" height="60" as="geometry" />
        </mxCell>
      </root>
    </mxGraphModel>
  </diagram>
</mxfile>
